<?xml version="1.0" encoding="UTF-8" standalone="no"?>
<svg width="402px" height="209px" viewBox="0 0 402 209" version="1.1" xmlns="http://www.w3.org/2000/svg" xmlns:xlink="http://www.w3.org/1999/xlink">
    <!-- Generator: sketchtool 3.8.3 (29802) - http://www.bohemiancoding.com/sketch -->
    <title>75700A03-6420-4F87-819D-3C9246C5F13C</title>
    <desc>Created with sketchtool.</desc>
    <defs>
        <rect id="path-1" x="1" y="-23" width="1170" height="1171"></rect>
        <filter x="-50%" y="-50%" width="200%" height="200%" filterUnits="objectBoundingBox" id="filter-3">
            <feMorphology radius="1" operator="dilate" in="SourceAlpha" result="shadowSpreadOuter1"></feMorphology>
            <feOffset dx="0" dy="2" in="shadowSpreadOuter1" result="shadowOffsetOuter1"></feOffset>
            <feGaussianBlur stdDeviation="2" in="shadowOffsetOuter1" result="shadowBlurOuter1"></feGaussianBlur>
            <feComposite in="shadowBlurOuter1" in2="SourceAlpha" operator="out" result="shadowBlurOuter1"></feComposite>
            <feColorMatrix values="0 0 0 0 0   0 0 0 0 0   0 0 0 0 0  0 0 0 0.18 0" type="matrix" in="shadowBlurOuter1"></feColorMatrix>
        </filter>
        <mask id="mask-4" maskContentUnits="userSpaceOnUse" maskUnits="objectBoundingBox" x="-1" y="-1" width="1172" height="1173">
            <rect x="0" y="-24" width="1172" height="1173" fill="white"></rect>
            <use xlink:href="#path-1" fill="black"></use>
        </mask>
        <rect id="path-5" x="0.08203125" y="0" width="504.917969" height="606"></rect>
        <filter x="-50%" y="-50%" width="200%" height="200%" filterUnits="objectBoundingBox" id="filter-6">
            <feOffset dx="0" dy="1" in="SourceAlpha" result="shadowOffsetOuter1"></feOffset>
            <feColorMatrix values="0 0 0 0 0   0 0 0 0 0   0 0 0 0 0  0 0 0 0.1 0" type="matrix" in="shadowOffsetOuter1" result="shadowMatrixOuter1"></feColorMatrix>
            <feOffset dx="1" dy="0" in="SourceAlpha" result="shadowOffsetOuter2"></feOffset>
            <feColorMatrix values="0 0 0 0 0   0 0 0 0 0   0 0 0 0 0  0 0 0 0.1 0" type="matrix" in="shadowOffsetOuter2" result="shadowMatrixOuter2"></feColorMatrix>
            <feOffset dx="-1" dy="0" in="SourceAlpha" result="shadowOffsetOuter3"></feOffset>
            <feColorMatrix values="0 0 0 0 0   0 0 0 0 0   0 0 0 0 0  0 0 0 0.1 0" type="matrix" in="shadowOffsetOuter3" result="shadowMatrixOuter3"></feColorMatrix>
            <feOffset dx="0" dy="-1" in="SourceAlpha" result="shadowOffsetOuter4"></feOffset>
            <feColorMatrix values="0 0 0 0 0   0 0 0 0 0   0 0 0 0 0  0 0 0 0.1 0" type="matrix" in="shadowOffsetOuter4" result="shadowMatrixOuter4"></feColorMatrix>
            <feMerge>
                <feMergeNode in="shadowMatrixOuter1"></feMergeNode>
                <feMergeNode in="shadowMatrixOuter2"></feMergeNode>
                <feMergeNode in="shadowMatrixOuter3"></feMergeNode>
                <feMergeNode in="shadowMatrixOuter4"></feMergeNode>
            </feMerge>
        </filter>
    </defs>
    <g id="Page-1" stroke="none" stroke-width="1" fill="none" fill-rule="evenodd">
        <g id="overview-v1" transform="translate(-197.000000, -777.000000)">
            <mask id="mask-2" fill="white">
                <use xlink:href="#path-1"></use>
            </mask>
            <g id="Mask">
                <use fill="black" fill-opacity="1" filter="url(#filter-3)" xlink:href="#path-1"></use>
                <use fill="#FFFFFF" fill-rule="evenodd" xlink:href="#path-1"></use>
                <use stroke-opacity="0.04" stroke="#000000" mask="url(#mask-4)" stroke-width="2" xlink:href="#path-1"></use>
            </g>
            <g id="contents" mask="url(#mask-2)">
                <g transform="translate(128.000000, 91.000000)" id="page-views">
                    <g transform="translate(0.000000, 488.000000)">
                        <g id="Rectangle-767">
                            <use fill="black" fill-opacity="1" filter="url(#filter-6)" xlink:href="#path-5"></use>
                            <use fill="#FDFDFD" fill-rule="evenodd" xlink:href="#path-5"></use>
                        </g>
                    </g>
                </g>
            </g>
            <g id="line-graph" mask="url(#mask-2)">
                <g transform="translate(166.000000, 777.000000)">
                    <rect id="Rectangle-2" stroke="none" fill="#F7F7F7" fill-rule="evenodd" x="31.1154976" y="0" width="401.441783" height="208.867606"></rect>
                    <g id="labels" stroke="none" stroke-width="1" fill="none" fill-rule="evenodd" transform="translate(0.000000, 2.876056)"></g>
                    <rect id="border" stroke="#000000" stroke-width="1" stroke-linecap="round" fill="none" opacity="0.119999997" x="31.1154976" y="0.0751717359" width="401.318426" height="208.587091"></rect>
                    <g id="x-grid" stroke="none" stroke-width="1" fill="none" fill-rule="evenodd" transform="translate(31.115498, 12.316950)" stroke-linecap="round" opacity="0.119999997">
                        <path d="M0.328411151,196.790213 L400.990015,196.790213" id="Line" stroke="#000000"></path>
                        <path d="M0.328411151,29.1846244 L400.990015,29.1846244" id="Line-Copy" stroke="#000000" stroke-dasharray="2,2"></path>
                        <path d="M0.328411151,1.08920416 L400.990015,1.08920416" id="Line-Copy-40" stroke="#000000" stroke-dasharray="2,2"></path>
                        <path d="M0.328411151,43.1053543 L400.990015,43.1053543" id="Line-Copy-2" stroke="#000000" stroke-dasharray="2,2"></path>
                        <path d="M0.328411151,15.2638945 L400.990015,15.2638945" id="Line-Copy-41" stroke="#000000" stroke-dasharray="2,2"></path>
                        <path d="M0.328411151,57.0260843 L400.990015,57.0260843" id="Line-Copy-3" stroke="#000000"></path>
                        <path d="M0.328411151,70.9468142 L400.990015,70.9468142" id="Line-Copy-4" stroke="#000000" stroke-dasharray="2,2"></path>
                        <path d="M0.328411151,84.8675441 L400.990015,84.8675441" id="Line-Copy-5" stroke="#000000" stroke-dasharray="2,2"></path>
                        <path d="M0.328411151,98.7882741 L400.990015,98.7882741" id="Line-Copy-6" stroke="#000000" stroke-dasharray="2,2"></path>
                        <path d="M0.328411151,112.709004 L400.990015,112.709004" id="Line-Copy-7" stroke="#000000" stroke-dasharray="2,2"></path>
                        <path d="M0.328411151,126.629734 L400.990015,126.629734" id="Line-Copy-8" stroke="#000000"></path>
                        <path d="M0.328411151,140.550464 L400.990015,140.550464" id="Line-Copy-9" stroke="#000000" stroke-dasharray="2,2"></path>
                        <path d="M0.328411151,154.471194 L400.990015,154.471194" id="Line-Copy-10" stroke="#000000" stroke-dasharray="2,2"></path>
                        <path d="M0.328411151,168.391924 L400.990015,168.391924" id="Line-Copy-11" stroke="#000000" stroke-dasharray="2,2"></path>
                        <path d="M0.328411151,182.312654 L400.990015,182.312654" id="Line-Copy-12" stroke="#000000" stroke-dasharray="2,2"></path>
                    </g>
                    <g id="y-grid" stroke="none" stroke-width="1" fill="none" fill-rule="evenodd" transform="translate(44.129902, 0.719476)" stroke-linecap="round" opacity="0.119999997">
                        <path d="M0.79948117,0.319375065 L0.79948117,207.984882" id="Line" stroke="#000000" stroke-dasharray="2,2"></path>
                        <path d="M14.6571548,0.319375065 L14.6571548,207.984882" id="Line-Copy-13" stroke="#000000" stroke-dasharray="2,2"></path>
                        <path d="M28.5148284,0.319375065 L28.5148284,207.984882" id="Line-Copy-14" stroke="#000000" stroke-dasharray="2,2"></path>
                        <path d="M42.372502,0.319375065 L42.372502,207.984882" id="Line-Copy-15" stroke="#000000" stroke-dasharray="2,2"></path>
                        <path d="M56.2301756,0.319375065 L56.2301756,207.984882" id="Line-Copy-16" stroke="#000000"></path>
                        <path d="M70.0878492,0.319375065 L70.0878492,207.984882" id="Line-Copy-17" stroke="#000000" stroke-dasharray="2,2"></path>
                        <path d="M83.9455228,0.319375065 L83.9455228,207.984882" id="Line-Copy-18" stroke="#000000" stroke-dasharray="2,2"></path>
                        <path d="M97.8031964,0.319375065 L97.8031964,207.984882" id="Line-Copy-19" stroke="#000000" stroke-dasharray="2,2"></path>
                        <path d="M111.66087,0.319375065 L111.66087,207.984882" id="Line-Copy-20" stroke="#000000" stroke-dasharray="2,2"></path>
                        <path d="M125.518544,0.319375065 L125.518544,207.984882" id="Line-Copy-21" stroke="#000000"></path>
                        <path d="M139.376217,0.319375065 L139.376217,207.984882" id="Line-Copy-22" stroke="#000000" stroke-dasharray="2,2"></path>
                        <path d="M153.233891,0.319375065 L153.233891,207.984882" id="Line-Copy-23" stroke="#000000" stroke-dasharray="2,2"></path>
                        <path d="M167.091564,0.319375065 L167.091564,207.984882" id="Line-Copy-24" stroke="#000000" stroke-dasharray="2,2"></path>
                        <path d="M180.949238,0.319375065 L180.949238,207.984882" id="Line-Copy-25" stroke="#000000" stroke-dasharray="2,2"></path>
                        <path d="M194.806912,0.319375065 L194.806912,207.984882" id="Line-Copy-26" stroke="#000000"></path>
                        <path d="M319.525974,0.319375065 L319.525974,207.984882" id="Line-Copy-35" stroke="#000000"></path>
                        <path d="M208.664585,0.319375065 L208.664585,207.984882" id="Line-Copy-27" stroke="#000000" stroke-dasharray="2,2"></path>
                        <path d="M333.391102,0.319375065 L333.391102,207.984882" id="Line-Copy-36" stroke="#000000" stroke-dasharray="2,2"></path>
                        <path d="M222.522259,0.319375065 L222.522259,207.984882" id="Line-Copy-28" stroke="#000000" stroke-dasharray="2,2"></path>
                        <path d="M347.25623,0.319375065 L347.25623,207.984882" id="Line-Copy-37" stroke="#000000" stroke-dasharray="2,2"></path>
                        <path d="M236.379932,0.319375065 L236.379932,207.984882" id="Line-Copy-29" stroke="#000000" stroke-dasharray="2,2"></path>
                        <path d="M361.121358,0.319375065 L361.121358,207.984882" id="Line-Copy-38" stroke="#000000" stroke-dasharray="2,2"></path>
                        <path d="M250.237606,0.319375065 L250.237606,207.984882" id="Line-Copy-30" stroke="#000000" stroke-dasharray="2,2"></path>
                        <path d="M374.986486,0.319375065 L374.986486,207.984882" id="Line-Copy-39" stroke="#000000" stroke-dasharray="2,2"></path>
                        <path d="M264.09528,0.319375065 L264.09528,207.984882" id="Line-Copy-31" stroke="#000000"></path>
                        <path d="M277.952953,0.319375065 L277.952953,207.984882" id="Line-Copy-32" stroke="#000000" stroke-dasharray="2,2"></path>
                        <path d="M291.810627,0.319375065 L291.810627,207.984882" id="Line-Copy-33" stroke="#000000" stroke-dasharray="2,2"></path>
                        <path d="M305.6683,0.319375065 L305.6683,207.984882" id="Line-Copy-34" stroke="#000000" stroke-dasharray="2,2"></path>
                    </g>
                    <polygon id="previous-average-copy" stroke="none" fill="#E5E5E5" fill-rule="evenodd" style="mix-blend-mode: multiply;" points="43.4885988 121.877707 56.7314922 129.311092 74.3938315 131.07478 91.6189783 135.253048 109.996508 131.132075 126.26886 128.693568 143.296795 122.761884 160.879537 116.442408 177.826686 113.540383 194.655033 110.563853 212.635763 109.131162 230.734106 104.943013 247.443651 92.6815801 264.827993 89.4852003 282.37153 87.8314371 299.437482 86.3254621 316.862216 83.8643596 334.048158 81.806316 352.305697 78.7943662 368.618442 78.7943662 386.438789 81.806316 403.191102 87.8314371 420.297447 96.9430128 420.297447 137.426161 408.004972 125.771501 394.82742 124.154379 381.730653 124.081096 366.806707 120.849296 352.676361 125.329357 337.992395 124.447513 324.021244 120.849296 310.446892 119.232174 296.316545 121.877707 282.186198 117.834903 268.217423 117.395202 253.293477 119.452025 240.431939 124.877707 224.954374 129.799912 212.888811 132.885145 198.91766 133.327289 183.200114 142.412522 170.022562 142.708099 156.12982 147.776871 141.524264 150.892958 129.140312 153.536048 114.693951 155.373019 100.166804 161.619212 86.0388338 165.303037 72.1460918 163.832482 57.3813408 163.539349 43.4885988 159.276695"></polygon>
                    <polyline id="previous-average" stroke="#B2B2B2" stroke-width="2" stroke-linecap="square" fill="none" points="43.7356735 143.205634 60.4980182 149.38465 77.9481814 144.148338 94.966404 144.326607 113.123165 143.205634 129.200039 143.767127 146.023419 134.835442 163.394941 130.515966 180.138506 125.613941 196.764695 122.637412 214.529424 123.204721 232.410354 120.016571 248.919168 112.755139 266.094674 109.558759 283.427462 107.904996 300.288401 111.399021 317.503814 110.937918 334.483303 105.879875 352.521516 102.867925 368.638297 99.8679247 386.244569 101.879875 402.795639 107.904996 419.696486 117.016571"></polyline>
                    <polyline id="current" stroke="#4EA3DA" stroke-width="2" stroke-linecap="square" fill="none" points="43.4885988 149.396864 60.546142 153.517837 78.3102837 149.785349 95.0738022 147.849362 111.621937 150.026673 129.228796 147.246842 147.217711 142.335629 163.707746 133.844894 180.43253 137.601172 197.255323 129.601172 214.724853 99.2078015 231.701995 123.207801 249.367541 115.749989 266.151014 112.590251 283.228511 112.590251 300.462703 117.167413 317.873546 116.803064 334.990364 118.803064 352.381252 118.803064 368.696985 117.918568 386.048553 115.749989 402.479313 119.315229 419.482863 118.601172"></polyline>
                </g>
            </g>
        </g>
    </g>
</svg>