<?xml version="1.0" encoding="UTF-8" standalone="no"?>
<svg width="128px" height="17px" viewBox="0 0 128 17" version="1.1" xmlns="http://www.w3.org/2000/svg" xmlns:xlink="http://www.w3.org/1999/xlink">
    <!-- Generator: sketchtool 3.8.2 (29753) - http://www.bohemiancoding.com/sketch -->
    <title>BD8CF495-962F-46DF-8253-0CD487441377</title>
    <desc>Created with sketchtool.</desc>
    <defs>
        <rect id="path-1" x="1" y="-23" width="1170" height="1171"></rect>
        <filter x="-50%" y="-50%" width="200%" height="200%" filterUnits="objectBoundingBox" id="filter-3">
            <feMorphology radius="1" operator="dilate" in="SourceAlpha" result="shadowSpreadOuter1"></feMorphology>
            <feOffset dx="0" dy="2" in="shadowSpreadOuter1" result="shadowOffsetOuter1"></feOffset>
            <feGaussianBlur stdDeviation="2" in="shadowOffsetOuter1" result="shadowBlurOuter1"></feGaussianBlur>
            <feComposite in="shadowBlurOuter1" in2="SourceAlpha" operator="out" result="shadowBlurOuter1"></feComposite>
            <feColorMatrix values="0 0 0 0 0   0 0 0 0 0   0 0 0 0 0  0 0 0 0.18 0" type="matrix" in="shadowBlurOuter1"></feColorMatrix>
        </filter>
        <mask id="mask-4" maskContentUnits="userSpaceOnUse" maskUnits="objectBoundingBox" x="-1" y="-1" width="1172" height="1173">
            <rect x="0" y="-24" width="1172" height="1173" fill="white"></rect>
            <use xlink:href="#path-1" fill="black"></use>
        </mask>
        <rect id="path-5" x="0" y="65" width="1170" height="40"></rect>
        <filter x="-50%" y="-50%" width="200%" height="200%" filterUnits="objectBoundingBox" id="filter-6">
            <feOffset dx="0" dy="2" in="SourceAlpha" result="shadowOffsetOuter1"></feOffset>
            <feGaussianBlur stdDeviation="2" in="shadowOffsetOuter1" result="shadowBlurOuter1"></feGaussianBlur>
            <feColorMatrix values="0 0 0 0 0   0 0 0 0 0   0 0 0 0 0  0 0 0 0.2 0" type="matrix" in="shadowBlurOuter1" result="shadowMatrixOuter1"></feColorMatrix>
            <feOffset dx="0" dy="1" in="SourceAlpha" result="shadowOffsetOuter2"></feOffset>
            <feColorMatrix values="0 0 0 0 0   0 0 0 0 0   0 0 0 0 0  0 0 0 0.04 0" type="matrix" in="shadowOffsetOuter2" result="shadowMatrixOuter2"></feColorMatrix>
            <feMerge>
                <feMergeNode in="shadowMatrixOuter1"></feMergeNode>
                <feMergeNode in="shadowMatrixOuter2"></feMergeNode>
            </feMerge>
        </filter>
        <rect id="path-7" x="0" y="0" width="1170" height="64"></rect>
        <filter x="-50%" y="-50%" width="200%" height="200%" filterUnits="objectBoundingBox" id="filter-8">
            <feOffset dx="0" dy="1" in="SourceAlpha" result="shadowOffsetOuter1"></feOffset>
            <feColorMatrix values="0 0 0 0 0   0 0 0 0 0   0 0 0 0 0  0 0 0 0.12 0" type="matrix" in="shadowOffsetOuter1"></feColorMatrix>
        </filter>
        <rect id="path-9" x="0" y="0" width="24" height="24"></rect>
        <mask id="mask-10" maskContentUnits="userSpaceOnUse" maskUnits="objectBoundingBox" x="0" y="0" width="24" height="24" fill="white">
            <use xlink:href="#path-9"></use>
        </mask>
        <circle id="path-11" cx="12.5" cy="11.5" r="2.5"></circle>
        <mask id="mask-12" maskContentUnits="userSpaceOnUse" maskUnits="objectBoundingBox" x="0" y="0" width="5" height="5" fill="white">
            <use xlink:href="#path-11"></use>
        </mask>
        <circle id="path-13" cx="19.5" cy="13.5" r="2.5"></circle>
        <mask id="mask-14" maskContentUnits="userSpaceOnUse" maskUnits="objectBoundingBox" x="0" y="0" width="5" height="5" fill="white">
            <use xlink:href="#path-13"></use>
        </mask>
        <path d="M8,16.5 C8,15.1192881 6.88071187,14 5.5,14 C4.11928813,14 3,15.1192881 3,16.5 C3,17.8807119 4.11928813,19 5.5,19 C6.88071187,19 8,17.8807119 8,16.5 L8,16.5 Z" id="path-15"></path>
        <mask id="mask-16" maskContentUnits="userSpaceOnUse" maskUnits="objectBoundingBox" x="0" y="0" width="5" height="5" fill="white">
            <use xlink:href="#path-15"></use>
        </mask>
    </defs>
    <g id="Page-1" stroke="none" stroke-width="1" fill="none" fill-rule="evenodd">
        <g id="overview-v1" transform="translate(-15.000000, -27.000000)">
            <mask id="mask-2" fill="white">
                <use xlink:href="#path-1"></use>
            </mask>
            <g id="Mask">
                <use fill="black" fill-opacity="1" filter="url(#filter-3)" xlink:href="#path-1"></use>
                <use fill="#FFFFFF" fill-rule="evenodd" xlink:href="#path-1"></use>
                <use stroke-opacity="0.04" stroke="#000000" mask="url(#mask-4)" stroke-width="2" xlink:href="#path-1"></use>
            </g>
            <g id="filters-+-header-Mask" mask="url(#mask-2)">
                <g transform="translate(0.000000, 1.000000)" id="global-header-with-secondary-bar">
                    <g>
                        <g id="Rectangle-636">
                            <use fill="black" fill-opacity="1" filter="url(#filter-6)" xlink:href="#path-5"></use>
                            <use fill="#FEFEFE" fill-rule="evenodd" xlink:href="#path-5"></use>
                        </g>
                        <g id="Rectangle-20-Copy">
                            <use fill="black" fill-opacity="1" filter="url(#filter-8)" xlink:href="#path-7"></use>
                            <use fill="#396D8A" fill-rule="evenodd" xlink:href="#path-7"></use>
                        </g>
                        <g id="logo" stroke-width="1" fill-rule="evenodd" transform="translate(18.000000, 27.000000)">
                            <g id="word" opacity="0.899999976" transform="translate(19.000000, 1.000000)" fill="#FFFFFF">
                                <path d="M14.7555265,3.35755102 C13.4070198,3.35755102 12.6009941,4.08318367 12.1458878,4.74636735 L12.1458878,1.1877551 C12.1458878,1.17232653 12.1454143,1.15665306 12.1454143,1.14195919 L12.1458878,0.641387755 C12.1458878,0.251020408 11.9732695,0.0612244898 11.6173774,0.0612244898 L11.4217906,0.0612244898 C11.0668457,0.0612244898 10.8937537,0.251020408 10.8937537,0.641387755 L10.8937537,11.2834286 C10.8937537,11.6742857 11.0668457,11.8635919 11.4217906,11.8635919 L11.6173774,11.8635919 C11.9732695,11.8635919 12.1458878,11.6742857 12.1458878,11.2834286 L12.1458878,7.2350204 C12.1458878,5.57485714 13.1441853,4.50220408 14.6894627,4.50220408 C15.9820875,4.50220408 16.8037413,5.45951021 16.8037413,7.0645714 L16.8037413,11.2834286 C16.8037413,11.6742857 16.9761229,11.8635919 17.3317782,11.8635919 L17.3878969,11.8635919 C17.7428419,11.8635919 17.9159338,11.7553469 17.9159338,11.3642449 L17.9159338,7.0770612 C17.9159338,4.76473469 16.770591,3.35755102 14.7555265,3.35755102" id="Fill-1"></path>
                                <path d="M22.2877475,3.35755102 C20.1419762,3.35755102 19.0349931,4.71110204 19.0349931,5.28808163 C19.0349931,5.44579592 19.0859025,5.58195919 19.1825119,5.68334694 C19.2819628,5.78644898 19.4226147,5.84448979 19.5684761,5.84448979 C19.7053395,5.84448979 19.8227862,5.79232653 19.8886132,5.70073469 C20.4796357,4.88253061 21.2383039,4.48481633 22.2062925,4.48481633 C23.6012097,4.48481633 24.3693494,5.23665306 24.3693494,6.60269388 L24.3693494,6.8429388 L24.2519027,6.8429388 C20.4389081,6.93232653 18.7378243,7.80122447 18.7378243,9.66024487 C18.7378243,11.0928979 19.7953188,11.9831021 21.4952187,11.9831021 C22.6862615,11.9831021 23.7307326,11.4754286 24.3861613,10.5859592 L24.3861613,10.7368163 C24.3861613,10.7740408 24.3871085,10.8078367 24.3878189,10.8413877 L24.3878189,11.3017959 C24.3878189,11.6799184 24.5549911,11.8635919 24.8990438,11.8635919 L25.0112812,11.8635919 C25.3179215,11.8635919 25.4829626,11.7161633 25.5151657,11.4139592 C25.5217958,11.3987755 25.5246373,11.3875102 25.5246373,11.376 L25.5246373,6.56914286 C25.5246373,4.55828571 24.3148882,3.35755102 22.2877475,3.35755102 M21.5944328,10.9586939 C20.5651161,10.9586939 19.9260257,10.4613061 19.9260257,9.66024487 C19.9260257,8.48669387 21.1319861,7.93959187 23.9578121,7.8325714 L24.3693494,7.81738773 L24.3693494,8.5160816 C24.3693494,9.93134693 23.2026957,10.9586939 21.5944328,10.9586939" id="Fill-2"></path>
                                <path d="M56.8431433,3.35755102 C54.6964247,3.35755102 53.5896787,4.71110204 53.5896787,5.28808163 C53.589442,5.44579592 53.6403513,5.58195919 53.737434,5.68334694 C53.836648,5.78644898 53.9780107,5.84448979 54.1233987,5.84448979 C54.2607353,5.84448979 54.3777087,5.79232653 54.443772,5.70073469 C55.0340847,4.88253061 55.792516,4.48481633 56.7607413,4.48481633 C58.156132,4.48481633 58.923798,5.23665306 58.923798,6.60269388 L58.923798,6.8429388 L58.807062,6.8429388 C54.9933567,6.93232653 53.2927467,7.80122447 53.2927467,9.66024487 C53.2927467,11.0928979 54.349294,11.9831021 56.0508513,11.9831021 C57.24071,11.9831021 58.284708,11.4754286 58.94061,10.5859592 L58.94061,10.7368163 C58.94061,10.7708571 58.9415573,10.8044081 58.9427413,10.8355102 L58.9427413,11.3017959 C58.9427413,11.6799184 59.1103867,11.8635919 59.453966,11.8635919 L59.5662033,11.8635919 C59.872844,11.8635919 60.037648,11.7161633 60.0705613,11.4139592 C60.0769547,11.3982857 60.0800333,11.3865306 60.0800333,11.376 L60.0800333,6.56914286 C60.0800333,4.55828571 58.870284,3.35755102 56.8431433,3.35755102 M56.1493553,10.9586939 C55.1202753,10.9586939 54.480948,10.4613061 54.480948,9.66024487 C54.480948,8.48669387 55.6869087,7.93959187 58.5122607,7.8325714 L58.923798,7.81738773 L58.923798,8.5160816 C58.923798,9.93134693 57.7571447,10.9586939 56.1493553,10.9586939" id="Fill-3"></path>
                                <path d="M9.37570693,8.85061227 C9.2267674,8.85061227 9.10032267,8.9074286 9.0243138,9.0139592 C8.4553126,10.1720816 7.19228633,10.8903673 5.72822713,10.8903673 C3.32601453,10.8903673 1.58254573,8.92310207 1.58254573,6.21061225 C1.58254573,3.46432653 3.27368447,1.54653061 5.6953136,1.54653061 C6.8953544,1.54653061 8.07218993,2.11542857 8.7678726,3.03477551 C8.88602967,3.16971429 9.03070707,3.24097959 9.1841456,3.24097959 C9.339952,3.24097959 9.50144127,3.16432653 9.6162834,3.03648979 C9.71502393,2.92579592 9.76640687,2.79281633 9.75740893,2.67477551 C9.75740893,2.02506123 8.34591667,0.437142857 5.72822713,0.437142857 C2.54864007,0.437142857 0.3282806,2.82538775 0.3282806,6.24416327 C0.3282806,9.63379593 2.52851313,11.9997551 5.67850167,11.9997551 C8.45744373,11.9997551 9.95560033,10.1943673 9.95560033,9.45624487 C9.95654747,9.28383673 9.9006656,9.13567347 9.7955318,9.02522447 C9.6866094,8.9145306 9.5345916,8.85061227 9.37570693,8.85061227" id="Fill-5"></path>
                                <path d="M34.8599977,10.6991021 C34.615159,10.8604898 34.3357494,10.9420408 34.031477,10.9420408 C33.2226097,10.9420408 32.9074451,10.4625306 32.9074451,9.23314287 L32.9074451,4.65502041 L34.7820945,4.65502041 C34.96229,4.65502041 35.1145445,4.59208163 35.2334121,4.46767347 C35.5161367,4.17232653 35.5144792,3.636 35.5144792,3.61322449 C35.5140057,3.58555102 35.4919843,3.56277551 35.4652273,3.56277551 L32.9074451,3.56277551 L32.9074451,2.19648979 C32.9074451,1.8 32.7447719,1.61583673 32.3957467,1.61583673 L32.2806677,1.61583673 C31.9247757,1.61583673 31.7516837,1.80563265 31.7516837,2.19648979 L31.7516837,3.56277551 L30.3345085,3.56277551 C30.3307199,3.56204081 30.3259842,3.56106123 30.3221956,3.56106123 C29.0139428,3.56106123 28.2223611,4.44783673 27.8567607,5.30351021 L27.8567607,5.10783673 C27.8567607,5.07673469 27.8558135,4.56122449 27.8551031,4.53281633 L27.8551031,4.5237551 C27.8558135,4.51861225 27.8567607,5.00032653 27.8567607,4.99542857 L27.8567607,4.06653061 C27.8567607,3.68204081 27.6869837,3.49444898 27.3365378,3.49444898 L27.222406,3.49444898 C26.8724336,3.49444898 26.7021831,3.68204081 26.7021831,4.06653061 L26.7021831,11.2831837 C26.7021831,11.6740408 26.8745647,11.8633469 27.2297465,11.8633469 L27.3450621,11.8633469 C27.7009543,11.8633469 27.873099,11.6740408 27.873099,11.2831837 L27.873099,8.0894694 C27.873099,5.90644898 28.7477933,4.65477551 30.2719965,4.65477551 C30.2746012,4.65477551 30.2783898,4.65428571 30.2809945,4.65281633 L30.2876245,4.65379592 C30.2992271,4.65477551 30.3101194,4.65502041 30.3221956,4.65502041 L31.7516837,4.65502041 L31.7516837,9.35289793 C31.7516837,11.1345306 32.4869099,12 33.9980899,12 C34.8365557,12 35.3503853,11.649551 35.5507077,11.3208979 C35.631926,11.1908571 35.6288477,11.0042449 35.5454984,10.8475102 C35.4152651,10.6008979 35.1415384,10.5308571 34.8599977,10.6991021" id="Fill-6"></path>
                                <path d="M65.5609613,10.8472653 C65.4304913,10.6018775 65.1577113,10.5308571 64.8756973,10.6991021 C64.62707,10.862449 64.3561847,10.9425306 64.0467027,10.9425306 C63.2375987,10.9425306 62.922908,10.4627755 62.922908,9.23363267 L62.9172247,4.59257143 L64.792348,4.59257143 C64.9723067,4.59257143 65.1238507,4.52963265 65.243192,4.40497959 C65.5259167,4.10938775 65.5297053,3.63648979 65.5297053,3.61322449 C65.5297053,3.58555102 65.507684,3.56277551 65.48069,3.56277551 L62.922908,3.56277551 L62.922908,2.1962449 C62.922908,1.7997551 62.7604713,1.61583673 62.4112093,1.61583673 L62.29542,1.61583673 C61.9402387,1.61583673 61.7673833,1.80563265 61.7673833,2.1962449 L61.7673833,3.56277551 L61.0904067,3.56277551 C60.697102,3.56277551 60.5292193,3.71093877 60.5292193,4.05844898 L60.5292193,4.16032653 C60.5292193,4.50710204 60.6914193,4.59257143 61.084724,4.59257143 L61.762174,4.59257143 L61.7673833,9.35314287 C61.7673833,11.1345306 62.5023727,12 64.0135527,12 C64.8520187,12 65.365848,11.6493061 65.5668807,11.3206531 C65.647152,11.1908571 65.6443107,11.004 65.5609613,10.8472653" id="Fill-7"></path>
                                <path d="M40.5488253,3.35755102 C39.349495,3.35755102 38.4333629,3.8162449 37.6746946,4.79779592 L37.6746946,1.1877551 C37.6746946,1.17232653 37.6737475,1.15616327 37.6737475,1.14195919 L37.6746946,0.641387755 C37.6746946,0.251020408 37.5018395,0.0612244898 37.1461842,0.0612244898 L37.0313421,0.0612244898 C36.6754499,0.0612244898 36.5023581,0.251020408 36.5023581,0.641387755 L36.5023581,11.2834286 C36.5023581,11.6742857 36.6754499,11.8635919 37.0313421,11.8635919 L37.1461842,11.8635919 C37.4959198,11.8635919 37.6578827,11.6791837 37.6578827,11.2834286 L37.6578827,10.6684898 C38.1155936,11.3370612 39.0662967,11.9997551 40.4825248,11.9997551 C42.7388761,11.9997551 44.3137519,10.2161633 44.3137519,7.66187753 C44.3137519,5.16832653 42.7305885,3.35755102 40.5488253,3.35755102 M43.1255506,7.67877553 C43.1255506,9.6205714 42.0299333,10.9244081 40.3994123,10.9244081 C38.8879955,10.9244081 37.6578827,9.71387753 37.6578827,8.22587753 L37.6578827,6.32326531 C38.1743169,5.10465306 39.158644,4.43338775 40.4332729,4.43338775 C41.9932311,4.43338775 43.1255506,5.79795919 43.1255506,7.67877553" id="Fill-8"></path>
                                <path d="M48.9600027,3.35755102 C46.6345095,3.35755102 44.9466858,5.18938775 44.9466858,7.71330613 C44.9466858,10.2372245 46.6380613,11.9997551 49.0592167,11.9997551 C51.281234,11.9997551 52.427524,10.6956735 52.427524,10.1395102 C52.4279973,9.98130613 52.3768513,9.84514287 52.2792947,9.74375513 C52.1800807,9.64138773 52.0396653,9.58212247 51.893804,9.58212247 C51.7569407,9.58212247 51.6399673,9.63428573 51.5760347,9.72465307 C51.0250293,10.3946939 50.489652,10.908 49.0592167,10.908 C47.426328,10.908 46.2255769,9.72979593 46.1206799,8.03779593 L52.1800807,8.03779593 C52.5082687,8.03779593 52.6761513,7.9719184 52.6761513,7.6114286 L52.6761513,7.50832653 C52.6761513,4.98710204 51.2173013,3.35755102 48.9600027,3.35755102 M48.9600027,4.43338775 C50.3726793,4.43338775 51.3165153,5.40685714 51.4334887,6.97910207 L46.1604603,6.97910207 C46.410745,5.45363265 47.5295675,4.43338775 48.9600027,4.43338775" id="Fill-9"></path>
                            </g>
                            <g id="badge" opacity="0.899999976" transform="translate(0.000000, 1.000000)" fill="#FFFFFF">
                                <polyline id="Fill-11" points="9.20915247 5.48889796 3.29087733 5.48889796 3.29087733 7.43412247 6.9760064 7.43412247 9.20915247 5.48889796"></polyline>
                                <path d="M15.6644624,0.824081633 C15.560039,0.716081633 15.3791331,0.711183673 15.2695003,0.814285713 L5.22093497,10.2874286 L5.20601733,10.3016327 C4.8465734,10.6736327 4.8465734,11.2795102 5.20601733,11.652 C5.38029318,11.8324898 5.61187168,11.9316735 5.85884139,11.9316735 C6.09965462,11.9316735 6.32626057,11.8373877 6.50669291,11.6561633 L15.6734603,1.23183673 C15.7766999,1.11477551 15.7724377,0.9357551 15.6644624,0.824081633" id="Fill-12"></path>
                                <path d="M0,5.00277551 L7.45442708,5.00277551 L9.68012347,5.00277551 L11.9338701,3.05755102 L0,3.05755102 L0,5.00277551 Z" id="Fill-14"></path>
                                <polyline id="Fill-16" points="14.6384607 0.626448979 1.88056898 0.626448979 1.88056898 2.57167347 12.3963167 2.57167347 14.6384607 0.626448979"></polyline>
                            </g>
                            <text id="CORE" font-family="ProximaNova-Semibold, Proxima Nova" font-size="12" font-weight="500" line-spacing="16" letter-spacing="0.400000006" fill="#5CC4BE">
                                <tspan x="90" y="11">CORE</tspan>
                            </text>
                        </g>
                        <text id="Dashboard" font-family="ProximaNova-Semibold, Proxima Nova" font-size="16" font-weight="500" fill="#FFFFFF">
                            <tspan x="779" y="42">Dashboard</tspan>
                        </text>
                        <text id="Historical" font-family="ProximaNova-Regular, Proxima Nova" font-size="24" font-weight="normal" line-spacing="28" letter-spacing="1.63912777e-08" fill-opacity="0.9" fill="#FFFFFF">
                            <tspan x="159" y="45">Historical</tspan>
                        </text>
                        <text id="Metrics" font-family="ProximaNova-Regular, Proxima Nova" font-size="24" font-weight="normal" line-spacing="28" letter-spacing="1.63912777e-08" fill-opacity="0.60436481" fill="#FFFFFF">
                            <tspan x="265" y="45">Metrics</tspan>
                        </text>
                        <text id="abcnews.com-copy" font-family="ProximaNova-Semibold, Proxima Nova" font-size="16" font-weight="500" fill="#FFFFFF">
                            <tspan x="947" y="42">abcnews.com</tspan>
                        </text>
                        <g id="icn-settings-light" opacity="0.604477612" stroke-width="1" fill-rule="evenodd" transform="translate(1108.000000, 23.000000)">
                            <g id="icon-area-4" stroke="#D8D8D8" stroke-width="2" fill="#FFFFFF" fill-opacity="0" opacity="0">
                                <use mask="url(#mask-10)" xlink:href="#path-9"></use>
                            </g>
                            <path d="M6,14.0500091 L6,4 L5,4 L5,14.0500091 C5.16155497,14.0172151 5.32876708,14 5.5,14 C5.67123292,14 5.83844503,14.0172151 6,14.0500091 Z M6,18.9499909 L6,20 L5,20 L5,18.9499909 C5.16155497,18.9827849 5.32876708,19 5.5,19 C5.67123292,19 5.83844503,18.9827849 6,18.9499909 Z M20,11.0500091 L20,4 L19,4 L19,11.0500091 C19.161555,11.0172151 19.3287671,11 19.5,11 C19.6712329,11 19.838445,11.0172151 20,11.0500091 Z M20,15.9499909 L20,20 L19,20 L19,15.9499909 C19.161555,15.9827849 19.3287671,16 19.5,16 C19.6712329,16 19.838445,15.9827849 20,15.9499909 Z M13,9.05000906 L13,4 L12,4 L12,9.05000906 C12.161555,9.01721513 12.3287671,9 12.5,9 C12.6712329,9 12.838445,9.01721513 13,9.05000906 Z M13,13.9499909 L13,20 L12,20 L12,13.9499909 C12.161555,13.9827849 12.3287671,14 12.5,14 C12.6712329,14 12.838445,13.9827849 13,13.9499909 Z" id="Rectangle-424" fill="#FFFFFF"></path>
                            <use id="Oval-126" stroke="#FFFFFF" mask="url(#mask-12)" stroke-width="2" xlink:href="#path-11"></use>
                            <use id="Oval-127" stroke="#FFFFFF" mask="url(#mask-14)" stroke-width="2" xlink:href="#path-13"></use>
                            <use id="Path" stroke="#FFFFFF" mask="url(#mask-16)" stroke-width="2" xlink:href="#path-15"></use>
                        </g>
                        <g id="icn-dropdown-copy-5" opacity="0.480000019" stroke-width="1" fill-rule="evenodd" transform="translate(1049.000000, 24.000000)" fill="#FFFFFF">
                            <rect id="Rectangle-338" fill-opacity="0" x="0" y="0" width="24" height="24"></rect>
                            <polygon id="Rectangle-27-Copy-6" points="6.34314575 10 17.6568542 10 12 15.6568542"></polygon>
                        </g>
                        <g id="icn-dropdown-copy-6" opacity="0.480000019" stroke-width="1" fill-rule="evenodd" transform="translate(885.000000, 24.000000)" fill="#FFFFFF">
                            <rect id="Rectangle-338" fill-opacity="0" x="0" y="0" width="24" height="24"></rect>
                            <polygon id="Rectangle-27-Copy-6" points="6.34314575 10 17.6568542 10 12 15.6568542"></polygon>
                        </g>
                        <g id="icn-plus" opacity="0.599999964" stroke-width="1" fill-rule="evenodd" transform="translate(1112.000000, 77.000000)">
                            <rect id="Rectangle-209" x="0" y="0" width="16" height="16"></rect>
                            <path d="M12.1774902,12.6426188 L12.6418126,12.6426188 C12.6418126,12.6426188 12.6428666,12.1629301 12.6418125,12.1618769 C9.69632118,9.21902905 3.80533854,3.33333333 3.80533854,3.33333333 L3.33333333,3.33333333 L3.33333333,3.80143231 L12.1774902,12.6426188 Z" id="Line" fill="#000000" transform="translate(7.987807, 7.987976) rotate(-45.000000) translate(-7.987807, -7.987976) "></path>
                            <path d="M12.1774902,12.6426188 L12.6418126,12.6426188 C12.6418126,12.6426188 12.6428666,12.1629301 12.6418125,12.1618769 C9.69632118,9.21902905 3.80533854,3.33333333 3.80533854,3.33333333 L3.33333333,3.33333333 L3.33333333,3.80143231 L12.1774902,12.6426188 Z" id="Line-Copy-2" fill="#000000" transform="translate(7.987807, 7.987976) rotate(45.000000) translate(-7.987807, -7.987976) "></path>
                        </g>
                        <text id="Filters" font-family="ProximaNova-Semibold, Proxima Nova" font-size="14" font-weight="500" line-spacing="16" letter-spacing="0.200000003" fill-opacity="0.6" fill="#000000">
                            <tspan x="1065" y="91">Filters</tspan>
                        </text>
                    </g>
                </g>
            </g>
        </g>
    </g>
</svg>